# xmcd
#
# Track frame offsets: 
#        150
#        19895
#        39042
#        58340
#        77585
#
# Disc length: 1328 seconds
#
# Revision: 0
# Processed by: cddbd v1.5.2PL0 Copyright (c) Steve Scherf et al.
# Submitted via: ExactAudioCopy v1.0b2
#
DISCID=33052e05
DTITLE=Anotha Level - What's That Cha Say
DYEAR=1994
DGENRE=Hip-Hop
TTITLE0=What's That Cha Say
TTITLE1=What's That Cha Say (edit)
TTITLE2=What's That Cha Say (Anotha Flava Mixx)
TTITLE3=What's That Cha Say (Instrumental)
TTITLE4=Phatt-T (ft. Pharcyde)
EXTD=
EXTT0=
EXTT1=
EXTT2=
EXTT3=
EXTT4=
PLAYORDER=
